<svg xmlns="http://www.w3.org/2000/svg" xmlns:xlink="http://www.w3.org/1999/xlink" width="20" height="20" viewBox="0 0 20 20">
  <defs>
    <path id="a" d="M14.21 4.179l-3.912 2.259a.524.524 0 0 1-.292.07.524.524 0 0 1-.291-.07L5.789 4.172v3.826c0 .234.19.423.424.423h7.574c.234 0 .424-.19.424-.423V4.179zm-.008-1.21a.423.423 0 0 0-.415-.337H6.213a.423.423 0 0 0-.413.33l4.206 2.429 4.196-2.422zM4.85 0h10.3c.934 0 1.692.758 1.692 1.692v16.616c0 .934-.758 1.692-1.692 1.692H4.85a1.692 1.692 0 0 1-1.692-1.692V1.692C3.158.758 3.916 0 4.85 0zm-.113 11.053v6.522c0 .467.379.846.846.846h8.834a.846.846 0 0 0 .846-.846v-6.522H4.737zm2.368 1.579h5.79a.79.79 0 0 1 0 1.579h-5.79a.79.79 0 1 1 0-1.58zm0 2.631h5.79a.79.79 0 1 1 0 1.58h-5.79a.79.79 0 1 1 0-1.58z"/>
  </defs>
  <use xlink:href="#a"/>
</svg>
